<?xml version="1.0" encoding="UTF-8"?>
<svg id="Capa_2" data-name="Capa 2" xmlns="http://www.w3.org/2000/svg" viewBox="0 0 1532.01 1532.01" fill="#ea4363">

  <g id="Layer_1" data-name="Layer 1">
    <g>
      <g>
        <path class="cls-1" d="m765.02,1532.01c-111.67,0-216.03-26.38-303.45-52.21-53.28-15.74-98.98-33.68-139.69-54.84-47.19-24.52-88.1-53.95-121.61-87.45-33.98-33.97-64.05-75.59-89.4-123.69-21.77-41.31-40.45-87.7-57.13-141.83C16.55,951.3-.02,856.93,0,766c.02-75.31,11.13-155.92,33.02-239.6,2.29-8.75,4.55-17.51,6.81-26.27,17.83-69.13,36.27-140.61,69.8-205.87,18.3-35.62,40.81-68.08,66.9-96.49,26.73-29.11,57.33-54.07,90.96-74.19,72.51-43.39,155.14-65.37,226.9-82.56C588.04,18.58,673.07,0,764.62,0c.47,0,.92,0,1.39,0,101.69.21,207.55,21.57,306.13,61.76,99.62,40.62,189.98,99.8,261.29,171.13,65.22,65.24,115.89,148.23,150.6,246.66,31.54,89.46,48.13,188.52,47.98,286.45-.13,82.47-12.95,199.65-73.27,289.61-44.1,65.77-102.16,122.38-158.3,177.13-13.72,13.38-27.9,27.21-41.58,40.88-13.17,13.17-26.48,26.87-39.36,40.11-51.69,53.17-105.14,108.15-167.81,148.91-37.93,24.67-84.26,43.05-137.7,54.62-44.8,9.7-94.59,14.66-147.98,14.73-.32,0-.66,0-.98,0Zm-.39-1528.01c-91.12,0-175.9,18.53-269.3,40.92-71.47,17.13-153.75,39.01-225.78,82.11-65.63,39.27-119.7,97.74-156.35,169.07-33.33,64.86-51.71,136.13-69.49,205.04-2.26,8.76-4.52,17.52-6.81,26.28-21.81,83.35-32.87,163.62-32.89,238.59-.02,90.51,16.5,184.52,53.57,304.81,35.47,115.1,83.08,201.42,145.54,263.87,61.69,61.68,146.6,107.9,259.6,141.28,87.13,25.75,191.16,52.04,302.31,52.04.33,0,.65,0,.98,0,81.32-.11,196.52-12.12,283.5-68.7,62.29-40.52,115.58-95.33,167.12-148.35,12.89-13.26,26.22-26.97,39.4-40.15s27.89-27.53,41.61-40.92c56-54.61,113.9-111.07,157.77-176.5,59.76-89.12,72.46-205.47,72.6-287.39h2s-2,0-2,0c.34-208.06-73.46-406.29-197.4-530.27C1185.98,91.06,974.92,4.43,766,4c-.46,0-.92,0-1.38,0Z"/>
        <path class="cls-1" d="m696.72,1464.54c-73,0-145.7-12.3-228.26-30.54-100.22-22.15-180.56-62.9-238.79-121.12-58.51-58.5-100.98-140.55-126.24-243.87-28.14-115.11-41.95-211.83-43.45-304.41-1.67-102.55,13.61-202.71,30.78-304.84,19.23-114.37,57.16-198.55,115.98-257.36,58.48-58.48,141.96-95.7,255.2-113.81,105.1-16.8,200.39-30.2,302.48-23.86,100.2,6.21,200.81,28.42,290.97,64.21,98.89,39.26,183.02,93.17,250.05,160.23,57.96,57.99,102.64,133.71,129.21,218.97,25.4,81.51,33.78,169.38,24.23,254.1-5.35,47.5-25.57,166.57-97.51,246.21-37.11,41.08-78.15,79.61-117.84,116.87-24.55,23.05-49.94,46.89-74.12,71.06-22.35,22.35-44.34,45.93-65.6,68.73-34.66,37.16-70.5,75.59-109.03,109.94-70.12,62.5-180.48,81.21-240.02,86.81l-.19-1.99.19,1.99c-19.49,1.83-38.79,2.69-58.06,2.69Zm15.31-1397.41c-82.64,0-162.69,11.54-249.45,25.41-112.39,17.97-195.15,54.83-253.01,112.69-58.21,58.2-95.78,141.68-114.86,255.2-17.14,101.94-32.38,201.9-30.72,304.11,1.5,92.27,15.27,188.71,43.34,303.52,25.08,102.6,67.2,184.02,125.18,241.99,57.68,57.67,137.36,98.06,236.82,120.04,103.98,22.98,192.25,36.49,285.08,27.78,59.05-5.55,168.46-24.07,237.73-85.81,38.4-34.22,74.17-72.58,108.77-109.68,21.29-22.83,43.3-46.43,65.7-68.83,24.22-24.22,49.63-48.07,74.21-71.15,39.63-37.2,80.61-75.68,117.61-116.63,71.16-78.78,91.19-196.87,96.5-243.98,19.83-175.96-38.53-355.98-152.3-469.8-128.59-128.64-324.84-210.02-538.44-223.27-17.55-1.09-34.91-1.59-52.15-1.59Z"/>
        <path class="cls-1" d="m584.09,1408.92c-36.32,0-72.64-3.49-108.23-10.51-46.21-9.11-85.02-20.76-118.66-35.64-40.43-17.87-73.97-40.46-102.56-69.05-29.62-29.62-53.32-64.76-72.43-107.41-15.73-35.1-28.38-75.65-38.66-123.96-21.35-100.26-34.07-201.64-37.81-301.31-3.91-104.14,1.29-209.45,15.43-313.02,6.96-50.98,16.32-91.1,29.46-126.24,16.51-44.17,38.89-79.98,68.4-109.5,29.3-29.3,64.76-51.36,108.4-67.43,34.75-12.8,74.48-21.78,125.05-28.25,94.32-12.08,197.9-10.15,307.85,5.74,158.49,22.9,377.68,80.47,521.86,224.69,53.04,53.06,90.18,118.36,107.41,188.86,17.36,71.04,14.12,146-9.37,216.76-17.69,53.28-47.34,103.47-90.66,153.44-38.57,44.49-84.19,84.73-128.3,123.64-30.27,26.7-61.57,54.3-90.34,83.06-25.45,25.43-49.11,53.55-71.99,80.75-24.73,29.39-50.29,59.78-78.17,86.84-55.44,53.8-120.79,90.89-194.23,110.23-46.31,12.19-94.38,18.32-142.44,18.32Zm-4.59-1296.13c-43.74,0-85.99,2.59-126.52,7.78-77.46,9.92-165.49,28.91-231.13,94.54-66.57,66.57-86.66,159.73-96.73,233.45-14.11,103.34-19.29,208.42-15.39,312.33,3.73,99.45,16.42,200.59,37.72,300.63,13.86,65.11,40.35,159.72,110.01,229.38,52.02,52.02,119.61,83.96,219.17,103.59,82.1,16.18,168.16,13.5,248.88-7.75,72.78-19.16,137.53-55.91,192.47-109.23,27.73-26.92,53.23-57.23,77.9-86.54,22.94-27.26,46.65-55.45,72.22-81,28.86-28.85,60.21-56.49,90.52-83.23,87.88-77.51,178.75-157.66,217.81-275.34l1.9.63-1.9-.63c47.5-143.11,11.21-293.21-97.08-401.53-143.4-143.44-361.71-200.74-519.6-223.56-62.32-9-122.58-13.51-180.25-13.51Z"/>
        <path class="cls-1" d="m500.91,1363.65c-8.76,0-17.48-.3-26.13-.91-78.15-5.47-146.3-35.13-197.1-85.76-26.63-26.55-47.53-58.58-63.9-97.94-12.89-31.01-22.85-65.78-32.3-112.74-19.54-97.18-32.61-201.53-38.85-310.16-6.69-116.57-5.53-221.11,3.55-319.59,6.79-73.68,21.88-157.13,82.22-217.47,49.15-49.15,121.47-75.5,214.96-78.34,92.21-2.8,194.02,8.59,311.25,34.8,102.15,22.84,203.25,56.36,300.48,99.64,67.45,30.02,144.65,68.99,205.89,130.38,36.92,37.02,82.5,95.46,90,163.63,7.33,66.68-24.77,129.38-53,170.24-42.43,61.43-102.06,107.61-160.19,148.37-69.7,48.88-123.48,92.95-169.23,138.71-33.91,33.91-63.52,72.82-92.16,110.44-52.48,68.96-106.75,140.26-188.72,181.66-58.13,29.36-123.54,45.02-186.79,45.02Zm-30.05-1219.31c-9.22,0-18.33.14-27.36.41-92.44,2.8-163.85,28.76-212.26,77.17-59.45,59.44-74.34,142.05-81.07,215.01-9.06,98.28-10.22,202.63-3.54,318.99,6.23,108.44,19.27,212.61,38.78,309.6,14.87,73.95,36.68,150.4,95.1,208.63,112.39,112.03,288.92,99.74,405.39,40.91l.9,1.79-.9-1.79c81.14-40.99,135.13-111.92,187.34-180.51,28.72-37.73,58.41-76.75,92.51-110.85,45.92-45.92,99.86-90.14,169.76-139.16,57.82-40.54,117.12-86.46,159.19-147.36,27.84-40.3,59.51-102.07,52.31-167.53-7.37-67.02-52.39-124.68-88.85-161.24-60.77-60.93-137.57-99.68-204.68-129.55-96.99-43.17-197.83-76.61-299.73-99.39-105.42-23.57-198.3-35.12-282.9-35.12Z"/>
        <path class="cls-1" d="m453.38,1320.68c-57.72,0-109.51-21.47-150.8-62.75-51.15-51.15-68.54-118.42-84.51-194.68-19.71-94.07-33.45-196.3-42-312.53-9.1-123.57-10.15-225.49-3.31-320.75,5.43-75.73,14.71-148.1,67.78-201.16,57.48-57.47,135.99-61.6,197.98-58.79,91.09,4.14,189.52,22.26,309.75,57.01,101.9,29.45,201.02,67.27,294.59,112.39,72.18,34.81,141.41,70.49,194.96,124.07,22.06,22.07,38.09,42.3,49,61.82,14.71,26.32,20.2,51.85,16.32,75.9-8.7,53.87-54.88,96.28-88.86,123.5l-1.25-1.56,1.25,1.56c-55.36,44.34-119.7,75.64-181.93,105.92-3.25,1.58-6.5,3.15-9.75,4.72-28.3,13.68-57.57,27.83-83.1,47.15-25.16,19.04-48.56,39.34-69.57,60.35-22.17,22.18-42.05,45.46-59.08,69.21-11.83,16.5-21.28,35.05-30.41,52.99-4.14,8.13-8.42,16.54-12.87,24.65-37.96,69.21-77.02,118.98-122.92,156.62-51.76,42.44-112.47,68.55-170.94,73.51-6.85.58-13.63.87-20.32.87Zm-41.43-1147.31c-55.93,0-120.06,9.74-168.58,58.26-52.1,52.09-61.24,123.68-66.62,198.62-6.82,95.06-5.77,196.8,3.31,320.17,8.54,116.05,22.26,218.11,41.93,312.01,15.84,75.61,33.05,142.3,83.42,192.67,43.89,43.88,95.61,62.05,147.87,62.05,67.16,0,135.22-29.98,188.83-73.94,45.49-37.3,84.25-86.7,121.95-155.45,4.42-8.06,8.69-16.44,12.81-24.54,9.2-18.08,18.72-36.77,30.72-53.51,17.16-23.93,37.18-47.38,59.5-69.71,21.13-21.14,44.68-41.56,69.98-60.71,25.85-19.56,55.3-33.8,83.77-47.56,3.25-1.57,6.5-3.14,9.74-4.72,62.03-30.18,126.17-61.39,181.18-105.44,33.46-26.8,78.93-68.5,87.41-121.01,6.55-40.56-14.45-84.47-64.2-134.25-53.1-53.13-122-88.64-193.86-123.29-93.37-45.03-192.27-82.76-293.96-112.15-119.93-34.66-218.06-52.73-308.82-56.86-8.51-.39-17.35-.64-26.39-.64Z"/>
        <path class="cls-1" d="m430.42,1272.85c-35.87,0-68.23-14.19-96.29-42.23-47.25-47.24-63.47-119.48-77.78-183.21l-1.78-7.92c-19.52-86.53-33.64-182.67-43.18-293.91-10.21-119.07-12.12-215.68-6.02-304.05l.32-4.66c4.27-62.3,9.59-139.84,57.2-187.44,49.07-49.06,122.62-46,187.72-39.28,85.3,8.8,177.96,30.83,291.62,69.31,99.53,33.7,195.04,74.28,283.88,120.62l.64.33c64.01,33.38,130.19,67.9,180.8,118.57,27.71,27.74,56.87,64.81,36.27,105.54-21.44,42.42-74.08,67.64-112.52,86.05-49.44,23.69-102.14,41.92-153.1,59.56-12.73,4.41-25.9,8.96-38.8,13.53-58.88,20.84-111.15,41.63-154.51,85.01-35.84,35.85-55.46,79.1-76.25,124.88-2.85,6.28-5.8,12.78-8.76,19.19-23.71,51.29-53.68,110.57-96.1,161.37h0c-49.49,59.27-111.98,96.14-167.15,98.62-2.08.09-4.15.14-6.21.14Zm-40.6-1062.47c-45.9,0-90.93,8.69-124.1,41.85-46.55,46.54-51.81,123.25-56.04,184.89l-.32,4.67c-6.08,88.16-4.17,184.58,6.02,303.44,9.52,111.06,23.62,207.02,43.09,293.37l1.78,7.93c14.19,63.2,30.28,134.84,76.71,181.26,28.83,28.83,62.31,42.6,99.49,40.93,54.07-2.43,115.48-38.76,164.26-97.19,42.12-50.45,71.93-109.44,95.54-160.49,2.96-6.4,5.9-12.89,8.75-19.16,20.94-46.13,40.71-89.69,77.06-126.06,43.95-43.97,96.66-64.94,156.01-85.95,12.91-4.57,26.09-9.13,38.83-13.54,50.86-17.6,103.44-35.79,152.68-59.38,37.92-18.17,89.84-43.04,110.67-84.25,19.44-38.45-8.78-74.13-35.53-100.91-50.18-50.24-116.09-84.61-179.82-117.85l-.64-.33c-88.66-46.24-183.99-86.74-283.32-120.37-113.36-38.39-205.75-60.35-290.74-69.12-19.66-2.03-40.11-3.72-60.38-3.72Z"/>
        <path class="cls-1" d="m433.47,1212.9c-20.23,0-39.01-8.7-55.91-25.92-45.18-46.05-63.79-117.65-78.75-175.18-20.46-78.69-35.12-167.11-44.84-270.29-10.04-106.67-11.63-193.29-5-272.58l.03-.36c4.76-56.95,11.28-134.94,55.63-177.66,18.8-18.11,45.05-28.31,80.25-31.16,28.94-2.35,59.1.7,87.37,4.35,78.02,10.06,159.81,32.08,265.18,71.39,90.86,33.9,177.42,73.56,257.26,117.88,56.72,31.48,121,67.17,168.33,115.86,17.43,17.93,24.13,35.28,19.93,51.58-4.68,18.16-23.11,35.14-54.78,50.46-26.18,12.67-56,21.72-75.73,27.71l-1.23.37c-35.08,10.65-71.25,19.83-106.23,28.7-24.37,6.18-49.57,12.57-74.18,19.4l-4.89,1.36c-48.39,13.41-103.24,28.61-140.09,64.18-33.09,31.93-52.18,76.5-70.64,119.6-2.49,5.82-5.07,11.83-7.61,17.63-22.27,50.9-45.29,103.53-76.03,152.25-15.25,24.17-69.71,103.54-130.34,110.02-2.6.28-5.19.42-7.75.42Zm-26.71-950.08c-35.69,0-73.86,6.4-99.35,30.95-43.26,41.68-49.71,118.8-54.42,175.12l-.03.36c-6.61,79.06-5.02,165.45,5,271.88,9.69,102.97,24.33,191.17,44.73,269.66,14.84,57.07,33.3,128.1,77.73,173.39,18.14,18.49,38.45,26.67,60.38,24.33,58.84-6.29,112.37-84.39,127.38-108.18,30.58-48.47,53.54-100.96,75.75-151.72,2.53-5.79,5.11-11.79,7.59-17.6,18.62-43.47,37.87-88.41,71.54-120.9,37.58-36.27,92.95-51.61,141.8-65.15l4.89-1.36c24.65-6.85,49.88-13.24,74.27-19.43,34.93-8.86,71.06-18.02,106.05-28.65l.58,1.91-.58-1.91,1.23-.37c38.16-11.59,117.57-35.7,127.79-75.34,3.83-14.86-2.53-30.94-18.92-47.8-46.92-48.27-110.93-83.8-167.4-115.15-79.67-44.22-166.04-83.8-256.72-117.63-105.07-39.2-186.59-61.15-264.3-71.17-17.25-2.22-40.54-5.23-64.99-5.23Z"/>
        <path class="cls-1" d="m459.38,1130.19c-14.73,0-29.16-7.78-42.95-23.18-33.37-37.28-49.37-89.73-62.22-131.87-21.55-70.63-36.27-147.76-45.01-235.78-5.68-57.26-12.03-143.08-1.59-226.85,8.38-67.21,30-116.06,64.27-145.18,41.96-35.66,100.65-37.18,142.49-32.17,77.61,9.29,155.04,36.9,220.54,62.68,76.1,29.95,151.46,66.55,223.99,108.78,2.52,1.47,5.05,2.94,7.59,4.41,41.83,24.28,85.08,49.4,116.44,85.46,8.77,10.08,18.93,25.24,17.55,40.2-.76,8.28-4.98,15.53-12.53,21.53-22.93,18.23-61.11,25.43-91.78,31.22-7.14,1.35-13.89,2.62-20.06,3.95-16.32,3.52-33.17,6.77-49.46,9.92-80.04,15.47-162.81,31.46-226.87,85.96-54.14,46.06-83.42,110.37-111.73,172.56-10.57,23.23-21.51,47.24-33.59,70.01-16.04,30.22-49.42,93.11-89.98,98.04-1.71.21-3.42.31-5.12.31Zm20.87-793.14c-35.34,0-75.21,7.35-105.77,33.32-33.48,28.46-54.64,76.44-62.89,142.63-10.4,83.37-4.07,168.89,1.6,225.96,8.71,87.76,23.38,164.63,44.85,235.01,12.74,41.77,28.6,93.75,61.38,130.37,14.46,16.15,29.47,23.41,44.6,21.57,38.49-4.68,71.21-66.32,86.93-95.95l1.77.94-1.77-.94c12.03-22.66,22.94-46.62,33.48-69.79,28.5-62.59,57.96-127.32,112.78-173.95,64.86-55.18,148.15-71.27,228.7-86.84,16.27-3.14,33.1-6.4,49.38-9.91,6.21-1.34,12.99-2.62,20.16-3.97,30.24-5.71,67.87-12.81,90.03-30.42,6.66-5.3,10.38-11.61,11.03-18.76,1.25-13.55-8.33-27.72-16.59-37.21-30.92-35.57-73.89-60.51-115.43-84.63-2.55-1.48-5.08-2.95-7.6-4.42-72.36-42.13-147.54-78.64-223.44-108.52-65.27-25.69-142.4-53.19-219.55-62.43-10.35-1.24-21.75-2.07-33.66-2.07Z"/>
        <path class="cls-1" d="m487.79,1022.32c-12.31,0-24.1-6.71-35.09-19.98-22.52-27.19-34.1-63.16-44.03-97.67-14.56-50.61-24.12-106.68-28.41-166.67-2.71-37.88-5.26-94.26,3.86-146.36,10.04-57.4,32.55-100.27,66.91-127.42,75.16-59.39,188.76-28.88,279.32,4.35,56.43,20.7,109.37,45.57,157.35,73.93,28.6,16.9,64.2,37.93,87.47,67.22,10.86,13.67,14.54,26.31,10.91,37.58-8.26,25.7-51.64,38.05-80.34,46.22l-1.94.55-.55-1.92.55,1.92c-4.37,1.25-8.74,2.49-13.11,3.73-69.13,19.6-140.62,39.87-198.63,85.85-50.67,40.16-84.26,95.06-116.74,148.15-5.79,9.46-11.78,19.25-17.78,28.82-17.41,27.77-40.82,59.86-67.51,61.62-.75.05-1.5.07-2.25.07Zm71.73-587.81c-39.03,0-75.79,8.97-106.02,32.86-75.16,59.39-75.52,182.74-69.26,270.35,4.27,59.71,13.78,115.51,28.27,165.85,9.81,34.1,21.24,69.62,43.27,96.22,10.79,13.02,22.22,19.24,33.99,18.46,24.89-1.64,47.48-32.8,64.39-59.75,5.99-9.55,11.97-19.33,17.75-28.78,32.66-53.39,66.44-108.59,117.67-149.2,58.64-46.48,130.52-66.86,200.03-86.57,4.37-1.24,8.74-2.48,13.11-3.72l1.94-.55c26.19-7.46,70.03-19.94,77.63-43.6,3.19-9.92-.26-21.32-10.24-33.87-22.82-28.7-58.06-49.53-86.38-66.26-47.77-28.23-100.5-53-156.7-73.61-52.79-19.36-113.46-37.83-169.45-37.83Z"/>
        <path class="cls-1" d="m528.39,910.18c-.73,0-1.45-.02-2.17-.07-10.46-.68-19.95-6.31-28.2-16.76-32.69-41.34-36.65-107.6-36.44-160.7.17-44.81,9.06-126.5,66.63-170.08,23.7-17.94,53.61-27.76,88.88-29.17,28.6-1.14,60.01,3.17,93.34,12.82,52.35,15.15,116.42,37.98,147.46,80.3,7.58,10.33,10.32,20.52,8.17,30.28-4.14,18.73-25.24,32.44-43.15,42.3-12.29,6.76-24.89,13.33-37.07,19.68-33.38,17.41-67.9,35.41-98.79,58.8-28.15,21.31-52.73,46.89-76.51,71.62-10.84,11.27-22.04,22.93-33.49,34.09-18.53,18.06-34.47,26.88-48.64,26.88Zm97.76-372.81c-32.68,0-67.16,6.92-95.53,28.4-56.2,42.54-64.87,122.83-65.04,166.91-.2,52.45,3.66,117.83,35.58,158.2,7.53,9.52,16.05,14.65,25.32,15.25,13.53.87,29.14-7.53,47.76-25.68h0c11.4-11.12,22.58-22.75,33.4-34,23.88-24.85,48.58-50.54,76.98-72.04,31.16-23.59,65.83-41.67,99.36-59.15,12.16-6.34,24.74-12.9,36.99-19.64,17.18-9.45,37.38-22.49,41.18-39.66,1.9-8.59-.62-17.69-7.49-27.05-30.33-41.35-93.61-63.84-145.35-78.82-21.08-6.1-51.27-12.7-83.17-12.7Z"/>
        <path class="cls-1" d="m585.47,807.1c-6.53,0-12.34-1.87-17.41-5.62-19.89-14.71-21.97-54.24-18.52-77.22,4.59-30.56,20.72-57.37,45.44-75.48,24.35-17.85,54.32-25.07,84.41-20.32,27.72,4.37,60.93,18.85,68.34,40.29,4.16,12.04.04,24.85-12.25,38.07-15.78,16.96-35.31,31.3-54.19,45.16-2.66,1.95-5.3,3.89-7.92,5.83-2.41,1.78-4.82,3.58-7.25,5.38-18.6,13.85-37.83,28.18-58.8,38.2-7.97,3.81-15.26,5.71-21.84,5.71Zm75.88-176.07c-23,0-45.24,7.21-64.01,20.97-23.84,17.48-39.42,43.35-43.84,72.85-3.18,21.18-1.39,59.84,16.94,73.41,8.89,6.58,20.71,6.41,35.14-.48,20.61-9.85,39.69-24.06,58.13-37.8,2.43-1.81,4.84-3.61,7.26-5.39,2.62-1.94,5.27-3.89,7.93-5.84,18.74-13.75,38.11-27.97,53.63-44.66l1.46,1.36-1.46-1.36c11.21-12.05,15.04-23.5,11.4-34.04-7.34-21.24-43-34.15-65.18-37.65-5.82-.92-11.64-1.37-17.41-1.37Z"/>
      </g>
      <g>
        <path class="cls-1" d="m764,1530.08c-3.83-97.24-57.3-182.6-109.01-265.16-25.86-41.29-52.6-83.98-72.26-127.08-28.98-63.55-38.25-119.62-29.2-176.46,12.31-77.29,44.88-150.94,76.37-222.16,3.7-8.36,7.38-16.7,11.02-25.01l3.66,1.6c-3.64,8.31-7.33,16.65-11.03,25.02-31.39,70.99-63.85,144.39-76.08,221.17-8.92,56.03.26,111.38,28.89,174.18,19.54,42.86,46.22,85.44,72.01,126.62,51.99,83,105.75,168.82,109.62,267.13l-4,.16Z"/>
        <path class="cls-1" d="m1172.58,1356.82c-75.47-80.37-154.76-159.59-231.43-236.21-75.87-75.82-154.33-154.22-229.1-233.73-4.82-5.13-9.93-10.33-14.88-15.36-12.26-12.47-24.94-25.37-35.4-39.29-5.03-6.7-7.35-11.42-6.91-20.14.21-4.18,1-8.2,1.76-12.08.98-4.99,1.9-9.7,1.74-14.82-.75-23.65-9.21-46.85-17.4-69.28l-.08-.21,3.76-1.37.08.21c8.3,22.73,16.88,46.24,17.64,70.53.18,5.58-.83,10.74-1.81,15.72-.77,3.92-1.49,7.62-1.69,11.51-.38,7.59,1.49,11.39,6.12,17.54,10.29,13.7,22.88,26.5,35.05,38.88,4.96,5.05,10.09,10.26,14.94,15.42,74.73,79.46,153.16,157.84,229.01,233.64,76.69,76.64,156,155.89,231.52,236.31l-2.92,2.74Z"/>
        <path class="cls-1" d="m1486.13,1000.05c-93.7-38.24-186.04-83.55-275.33-127.37-85.73-42.07-174.38-85.57-264.07-122.72-2.36-.98-4.71-1.96-7.06-2.93-41.75-17.38-81.18-33.79-126.41-26.92-61.76,9.38-116.07,8.38-170.91-3.15l.82-3.91c54.36,11.43,108.22,12.42,169.49,3.11,46.33-7.04,86.27,9.58,128.55,27.18,2.34.98,4.69,1.95,7.05,2.93,89.8,37.2,178.51,80.73,264.3,122.83,89.24,43.79,181.51,89.06,275.08,127.25l-1.51,3.7Z"/>
        <path class="cls-1" d="m643.41,716.9l-1.3-3.78c90.49-31.14,189.38-45.74,320.64-47.34,87.07-1.06,159.17-6.32,226.9-16.55,64.02-9.68,113.86-22.71,156.84-41.02,26.92-11.47,52.63-26.35,77.5-40.74,22.9-13.25,46.58-26.96,71.21-38.02l1.64,3.65c-24.45,10.97-48.04,24.63-70.85,37.83-24.97,14.45-50.79,29.4-77.94,40.96-43.3,18.45-93.45,31.57-157.81,41.3-67.91,10.26-140.19,15.54-227.45,16.6-130.82,1.59-229.32,16.12-319.39,47.12Z"/>
        <path class="cls-1" d="m644.05,716.53l-2.58-3.06c92.85-78.43,203.81-109.52,300.1-129.59,8.12-1.69,16.44-3.34,24.47-4.93,32.12-6.36,65.34-12.94,96.28-24.41,23.65-8.77,45.87-26.21,67.94-53.31,34-41.76,44.83-95.6,55.31-147.67l.62-3.09c1.33-6.58,2.64-13.16,3.95-19.73,11.65-58.41,23.7-118.81,44.57-176.26l3.76,1.37c-20.77,57.17-32.79,117.42-44.41,175.68-1.31,6.58-2.62,13.15-3.95,19.74l-.62,3.09c-10.57,52.54-21.51,106.88-56.13,149.4-22.53,27.67-45.31,45.51-69.65,54.53-31.23,11.58-64.61,18.19-96.89,24.58-8.03,1.59-16.33,3.23-24.43,4.92-95.8,19.97-206.16,50.88-298.34,128.73Z"/>
        <path class="cls-1" d="m644.59,715.81l-3.66-1.6c3.55-8.11,7.14-16.23,10.74-24.39,31.13-70.47,63.33-143.34,76-219.6,5.22-31.4,5.87-64.17,6.51-95.86.43-21.64.88-44.02,2.77-65.8,3.03-34.77,7.09-69.88,11.02-103.83,7.66-66.13,15.57-134.51,16.03-202.74l4,.03c-.46,68.44-8.39,136.93-16.06,203.17-3.93,33.93-7.99,69.01-11.01,103.72-1.88,21.64-2.33,43.95-2.76,65.53-.64,31.83-1.29,64.75-6.56,96.44-12.76,76.76-45.06,149.86-76.29,220.56-3.6,8.15-7.19,16.27-10.74,24.37Z"/>
        <path class="cls-1" d="m640.9,715.74c-39.85-101.08-98.99-195.46-146.06-266.4-32.27-48.63-68.72-94.81-103.97-139.46-17.93-22.71-36.46-46.19-54.28-69.77l-.6-.79c-15.59-20.63-31.71-41.97-35.24-68.71-2.61-19.82-6.23-35.83-16.21-54.38l3.52-1.89c10.26,19.08,13.98,35.48,16.65,55.75,3.38,25.69,19.18,46.6,34.46,66.82l.6.79c17.79,23.55,36.32,47.01,54.23,69.7,35.3,44.72,71.8,90.95,104.17,139.73,47.18,71.09,106.46,165.71,146.45,267.14l-3.72,1.47Z"/>
        <path class="cls-1" d="m642.29,716.95c-81.72-19.76-166.16-55.78-258.14-110.11-16.1-9.51-32.21-19.69-47.79-29.54-35.79-22.62-72.79-46-112.33-62.92-30.94-13.24-55.54-15.84-79.79-8.45-7.13,2.18-13.98,4.44-20.61,6.62-29.15,9.62-54.31,17.93-88.22,14.68l.38-3.98c33.06,3.17,57.86-5.02,86.58-14.5,6.65-2.19,13.52-4.46,20.69-6.65,25.21-7.69,50.66-5.04,82.53,8.6,39.83,17.04,76.97,40.51,112.89,63.22,15.55,9.83,31.64,20,47.69,29.48,91.63,54.12,175.71,89.99,257.04,109.66l-.94,3.89Z"/>
        <path class="cls-1" d="m37.45,1007.82l-.59-3.96c27.13-4.07,54.18-3.18,80.34-2.32,17.94.59,36.49,1.2,54.91.21,29.68-1.6,58.22-11.4,92.55-31.78,47.89-28.43,90.97-60.86,135.59-102.06,78.86-72.82,155.7-122.01,241.8-154.79l1.42,3.74c-85.61,32.59-162.03,81.52-240.51,153.99-44.83,41.4-88.13,73.99-136.27,102.56-34.91,20.72-64.02,30.69-94.37,32.33-18.6,1-37.23.39-55.26-.2-25.98-.86-52.84-1.74-79.62,2.27Z"/>
        <path class="cls-1" d="m298.5,1410.16l-3.31-2.25c3.18-4.66,6.37-9.34,9.58-14.04,34.2-50.08,69.57-101.86,96.23-155.36,13.68-27.45,27.83-55.84,36.38-85.9,6.57-23.08,12.47-46.78,18.18-69.7,5.39-21.61,10.95-43.96,17.08-65.78,37.93-135.24,91.55-231.7,168.74-303.58l2.73,2.93c-76.63,71.36-129.9,167.23-167.62,301.73-6.11,21.77-11.67,44.09-17.05,65.67-5.72,22.95-11.63,46.68-18.22,69.82-8.65,30.41-22.88,58.97-36.65,86.58-26.79,53.75-62.23,105.65-96.51,155.84-3.21,4.7-6.4,9.38-9.58,14.04Z"/>
      </g>
    </g>
  </g>
</svg>