<?xml version="1.0" encoding="UTF-8"?>
<svg id="Capa_2" data-name="Capa 2" xmlns="http://www.w3.org/2000/svg" viewBox="0 0 1395 1395" fill="#ea4363">

  <g id="Layer_1" data-name="Layer 1">
    <g>
      <g>
        <path class="cls-1" d="m697.5,1395c-184.2,0-354.17-68.51-478.59-192.92-66.59-66.58-121.65-146.55-159.23-231.24C20.08,881.58,0,789.62,0,697.5c0-172.15,75.7-338.84,218.91-482.05C359.86,74.5,525.36,0,697.5,0c91.45,0,186.47,20.02,274.81,57.91,86.71,37.19,167.36,91.66,233.23,157.54,62.03,62.03,109.99,136.71,142.55,221.94,31.13,81.49,46.91,169,46.91,260.1,0,93.08-15.87,186.85-45.9,271.17-32.98,92.59-81.28,171.12-143.56,233.4-62.87,62.87-141.9,111.85-234.88,145.55-85.48,30.99-179.93,47.37-273.16,47.37Zm0-1390c-170.79,0-335.06,74-475.05,213.99C80.19,361.24,5,526.71,5,697.5c0,180.24,79.26,362.86,217.45,501.04,123.47,123.46,292.18,191.46,475.05,191.46,196.02,0,384.62-71.57,504.5-191.46,119.47-119.47,187.99-302.1,188-501.04h2.5-2.5c0-187.33-66.76-357.27-188-478.51C1068.02,85,879.42,5,697.5,5Z"/>
        <path class="cls-1" d="m706.65,1339.44c-79.32,0-155.92-13.94-227.72-41.43-75.6-28.95-141.9-71.55-197.05-126.61-61.87-61.77-113.91-136.57-150.51-216.3-38.19-83.2-58.32-169.65-58.23-249.98.23-193.61,130.88-353.13,208.74-430.99,61.4-61.4,127.17-110.09,195.48-144.72,76.55-38.8,153.96-58.52,230.09-58.61.21,0,.42,0,.63,0,82.08,0,169.33,19.12,252.41,55.3,81.86,35.66,157.47,86.85,218.64,148.03,54.46,54.47,96.26,121.96,124.24,200.58,25.22,70.89,38.5,150.56,38.4,230.42-.1,86.98-12.63,172.7-36.22,247.89-27.89,88.91-70.42,162.39-126.41,218.38-56.93,56.94-131.04,100.52-220.26,129.55-77.07,25.08-164.01,38.39-251.42,38.49-.27,0-.55,0-.81,0Zm.81-5v2.5s0-2.5,0-2.5c191.89-.23,362.53-60.95,468.16-166.58,102.19-102.19,160.93-270.86,161.16-462.74.2-169.01-58.54-324.81-161.18-427.45-124.53-124.55-303.62-201.86-467.52-201.86-.21,0-.41,0-.62,0-142.15.17-292.04,71.86-422.04,201.86-77.31,77.31-207.05,235.65-207.28,427.46-.19,157.59,79.23,334.9,207.27,462.73,106.05,105.88,259.57,166.58,421.27,166.58.27,0,.51,0,.78,0Z"/>
        <path class="cls-1" d="m732.11,1296.1c-69.41,0-139.47-12.64-202.7-36.57-68.31-25.85-127.8-63.85-176.84-112.93-56-56.05-103.35-124.02-136.93-196.55-35.08-75.77-53.54-153.6-53.38-225.09.15-66.84,19.08-136.63,56.26-207.43,32.33-61.57,78.68-123.41,134.05-178.82,54.29-54.34,115-99.58,175.56-130.83,69.19-35.71,138.25-53.89,205.27-54.04,73.62-.18,152.58,17.26,228.36,50.38,74.55,32.59,143.27,79.1,198.72,134.49,48.57,48.51,85.77,109.24,110.58,180.48,22.07,63.37,33.65,134.54,33.49,205.79h-2.5s2.5,0,2.5,0c-.18,79.06-10.97,156.28-31.21,223.3-24.53,81.23-62.51,147.96-112.87,198.32-51.31,51.31-118.63,90.34-200.1,116.02-68.95,21.73-147.43,33.31-226.94,33.49-.43,0-.87,0-1.3,0Zm2.34-1137.28c-.35,0-.7,0-1.05,0-169.22.38-309.03,115.08-377.3,183.41-119.73,119.84-188.57,259.34-188.84,382.73-.32,140.97,72.04,301.18,188.84,418.1,94.02,94.12,230.99,148.03,375.96,148.03.44,0,.88,0,1.33,0,175.47-.4,329.84-54.36,423.52-148.05,123.55-123.55,142.38-314.98,142.62-418.09.34-152.35-51.63-291.85-142.6-382.72-113.32-113.2-275.11-183.41-422.48-183.41Z"/>
        <path class="cls-1" d="m771.52,1262.26c-64.1,0-128.06-14.33-190.16-42.6-58.17-26.49-113.85-65.45-161.01-112.67-47.75-47.81-87.21-104.45-114.11-163.8-28.29-62.41-42.57-125.96-42.45-188.89.21-113.36,61.09-239.19,167.02-345.23,47.87-47.92,102.21-87.87,157.14-115.54,61.72-31.09,123.56-46.96,183.78-47.17.48,0,.98,0,1.47,0,131.69,0,275.66,62.26,376.12,162.73,83.13,83.15,130.65,208.98,130.38,345.23-.14,69.57-10.14,138.05-28.92,198.01-22.32,71.29-56.46,130.25-101.46,175.25-45.71,45.71-105.16,80.69-176.69,103.96-61.67,20.06-131.14,30.69-200.88,30.73h-.23Zm.23-5v2.5s0-2.5,0-2.5c72.45-.04,253.93-13.1,374.04-133.22,81.62-81.62,128.6-216.38,128.91-369.74.27-134.94-46.72-259.48-128.91-341.69-99.54-99.56-242.18-161.26-372.58-161.26-.49,0-.97,0-1.45,0-112.45.4-235.43,59.17-337.4,161.25-105.01,105.12-165.35,229.66-165.56,341.71-.23,122.96,56.3,250.22,155.1,349.15,97.62,97.75,224.32,153.8,347.64,153.8h.22Z"/>
        <path class="cls-1" d="m817.36,1235.2c-56.33,0-112.17-12.16-166-36.14-51.66-23.02-98.94-55.71-140.51-97.15-86.96-86.69-136.77-200.23-136.66-311.49.06-53.73,13.12-108.67,38.82-163.29,24.24-51.52,59.5-101.13,101.95-143.45,88.03-87.75,198.54-138.03,303.3-138.03.24,0,.47,0,.71,0,57.05.12,113.59,12.29,168.05,36.17,52.55,23.04,100.31,55.65,141.97,96.92,41.87,41.49,74.9,89.12,98.17,141.56,24.33,54.83,36.64,112.07,36.58,170.13-.06,59.37-9.71,118.96-27.91,172.34-20.62,60.5-51.19,111.29-90.87,150.97-40.3,40.31-91.36,71.41-151.75,92.44-53.79,18.74-114.04,28.77-174.24,29.02-.54,0-1.08,0-1.61,0Zm.9-884.55c-103.45,0-212.66,49.75-299.77,136.57-88.42,88.14-139.2,198.65-139.31,303.2-.11,109.94,49.16,222.18,135.19,307.94,84.1,83.84,194.48,131.83,303.06,131.83.51,0,1.01,0,1.52,0,129.21-.53,246.75-44.27,322.47-120,74.41-74.42,117.17-190.97,117.31-319.78h2.5s-2.5,0-2.5,0c.25-233.76-205.25-439.26-439.78-439.77-.23,0-.47,0-.7,0Z"/>
        <path class="cls-1" d="m871.41,1212.16c-50.28,0-99.62-10.42-146.65-30.96-45.16-19.73-86.04-47.79-121.48-83.39-35.36-35.51-63.22-76.43-82.81-121.6-20.32-46.85-30.62-95.85-30.61-145.64.01-95.24,42.16-192.06,115.63-265.65,35.35-35.4,77.44-64.57,121.72-84.36,46.88-20.95,95.41-31.58,144.24-31.58h.04c50.3,0,99.58,10.25,146.49,30.48,45.24,19.5,86.12,47.29,121.5,82.59,35.43,35.34,63.32,76.2,82.89,121.44,20.35,47.03,30.66,96.51,30.66,147.08,0,50.06-9.26,100.9-26.76,147.01-18.66,49.17-45.71,91.69-80.38,126.37-34.9,34.9-77.54,62.15-126.74,81.01-46.41,17.79-97.49,27.19-147.71,27.2h-.04Zm.04-5v2.5s0-2.5,0-2.5c104.34-.01,203.09-38.92,270.91-106.75,67.15-67.15,105.67-165.5,105.68-269.84.01-98.76-39.79-192.87-112.08-264.99-72.13-71.97-166.06-111.6-264.46-111.6h-.04c-197.07.02-376.57,179.52-376.59,376.59-.01,96.11,40.8,192.22,111.96,263.71,72.47,72.79,166.44,112.88,264.59,112.88h.04Z"/>
        <path class="cls-1" d="m925.61,1190.45c-41.69,0-82.65-8.58-121.75-25.49-37.71-16.32-71.84-39.53-101.43-69.01-29.66-29.54-53.02-63.64-69.44-101.35-17.09-39.26-25.75-80.49-25.75-122.55,0-41.96,8.61-83.1,25.57-122.28,16.33-37.73,39.58-71.83,69.1-101.37,29.53-29.55,63.63-52.82,101.36-69.16,39.2-16.98,80.37-25.6,122.38-25.6h.04c42.14,0,83.41,8.69,122.7,25.84,37.7,16.46,71.79,39.87,101.33,69.59,29.43,29.62,52.61,63.75,68.91,101.46,16.88,39.07,25.44,79.96,25.43,121.52h-2.5s2.5,0,2.5,0c0,41.69-8.63,82.68-25.63,121.82-16.37,37.69-39.66,71.81-69.21,101.42-29.58,29.64-63.69,52.99-101.38,69.42-39.21,17.09-80.32,25.75-122.18,25.76h-.04Zm.09-631.82h-.04c-169.86.02-313.38,143.55-313.41,313.41-.01,81.89,33.27,160.15,93.71,220.36,59.36,59.13,139.43,93.05,219.66,93.05h.04c169.86-.02,313.39-143.55,313.41-313.41.01-80.06-33.84-160.04-92.88-219.46-60.21-60.59-138.51-93.95-220.48-93.95Z"/>
        <path class="cls-1" d="m978.45,1167.31c-.16,0-.31,0-.46,0-63.8-.15-128.53-28.11-177.58-76.73-24.09-23.88-43.11-51.21-56.53-81.25-14.05-31.44-21.15-64.16-21.11-97.25.04-33.58,6.96-66.51,20.57-97.85,13.1-30.18,31.74-57.47,55.4-81.13,23.66-23.65,50.98-42.31,81.21-55.45,31.39-13.65,64.38-20.65,98.04-20.79.32,0,.64,0,.96,0,32.34,0,64.38,6.97,95.27,20.72,29.64,13.2,56.76,31.94,80.61,55.71,49.89,49.73,78.46,114.9,78.4,178.8-.06,62.59-28.98,127.26-79.33,177.45-49.61,49.45-113.53,77.78-175.44,77.78Zm.45-505.46c-.3,0-.6,0-.9,0-135.48.58-250.07,115.17-250.24,250.23-.16,130.66,119.11,249.93,250.23,250.22.15,0,.3,0,.45,0,60.6,0,123.23-27.8,171.91-76.32,49.42-49.25,77.8-112.64,77.86-173.91.06-62.58-27.97-126.46-76.93-175.26-47.83-47.68-110.62-74.97-172.39-74.97Z"/>
        <path class="cls-1" d="m1024.59,1140.02c-47.91,0-96.74-21.41-134.03-58.77-36.86-36.93-57.88-85.51-57.68-133.29.21-50.43,20.4-98.39,56.84-135.05,36.55-36.76,84.43-56.99,134.87-56.99.11,0,.22,0,.34,0,47.94.09,96.87,21.97,134.26,60.05,36.82,37.51,57.88,85.62,57.79,132h-2.5s2.5,0,2.5,0c-.1,45.21-21.96,93.1-59.99,131.37-38.22,38.46-86.35,60.58-132.05,60.67-.11,0-.23,0-.34,0Zm.01-379.09c-100.83,0-186.3,85.59-186.72,187.06-.19,46.45,20.3,93.74,56.22,129.74,36.44,36.51,84.15,57.36,130.82,57.3,92.46-.2,186.86-94.59,187.05-187.05.1-45.08-20.45-91.91-56.35-128.48-36.45-37.13-84.09-58.47-130.7-58.56-.1,0-.21,0-.32,0Z"/>
        <path class="cls-1" d="m1063.23,1105.86c-.13,0-.25,0-.38,0-31.55-.13-64.04-14.41-89.12-39.19-25.34-25.03-39.83-57.72-39.74-89.68.19-69.24,59.19-128.25,128.84-128.86,31.11-.25,63.3,13.85,88.34,38.74,25.46,25.3,40.62,59,40.54,90.13-.07,30.06-15.55,63.34-41.4,89.02-25.5,25.33-57.22,39.83-87.09,39.83Zm.49-252.73c-.28,0-.56,0-.84,0-66.97.58-123.7,57.31-123.89,123.87-.18,63.4,60.02,123.59,123.87,123.86.12,0,.24,0,.36,0,28.56,0,58.99-13.97,83.56-38.38,24.93-24.77,39.86-56.73,39.93-85.49.07-29.83-14.53-62.2-39.07-86.58-23.88-23.73-54.42-37.29-83.94-37.29Z"/>
        <path class="cls-1" d="m1088.71,1062.09c-.17,0-.34,0-.51,0-34.41-.35-65.7-31.66-65.66-65.69.05-34.53,30.73-65.22,65.65-65.68,15.85-.2,32.3,6.88,45.01,19.45,13.18,13.03,20.73,29.89,20.7,46.23h0c-.03,15.84-7.86,33.03-20.96,45.97-12.69,12.54-28.79,19.71-44.24,19.71Zm.17-126.37c-.21,0-.41,0-.62,0-32.3.43-60.67,28.78-60.71,60.69-.04,31.43,28.89,60.36,60.71,60.68,14.33.14,29.29-6.51,41.18-18.26,12.17-12.03,19.45-27.88,19.47-42.42.02-14.8-7.16-30.75-19.22-42.67-11.6-11.47-26.44-18.01-40.81-18.01Z"/>
      </g>
      <g>
        <path class="cls-1" d="m700,1392.63l-4.99-.26c2.75-53.08,24.64-94.91,66.91-127.89,37.43-29.2,86.93-48.78,134.79-67.73,99.62-39.42,193.73-76.66,198.28-193.37l5,.19c-2.1,53.86-23.69,96.24-65.99,129.55-37.47,29.5-87.28,49.21-135.44,68.27-94.68,37.47-192.59,76.21-198.55,191.22Z"/>
        <path class="cls-1" d="m1116.85,1270.93c-23.02-42.4-51.68-95.17-14.45-138.97,2.77-3.25,5.81-6.38,8.76-9.41,7.45-7.65,14.49-14.88,18.05-24.5,10.72-28.94-11.92-61.57-28.44-85.39-1.87-2.69-3.67-5.29-5.35-7.77l4.14-2.8c1.67,2.47,3.46,5.05,5.32,7.73,17.15,24.73,40.65,58.59,29.02,89.98-3.93,10.61-11.67,18.56-19.16,26.26-2.89,2.97-5.87,6.03-8.53,9.16-15.52,18.26-20.19,39.81-14.27,65.91,5.25,23.15,18.03,46.67,29.3,67.43l-4.39,2.39Z"/>
        <path class="cls-1" d="m1162.83,1019.25c-20.5,0-42.11-6.35-60-11.6-2.06-.6-4.07-1.2-6.03-1.76l1.39-4.8c1.97.57,3.99,1.16,6.05,1.77,30.61,8.99,72.54,21.31,98.64-2.2,9.92-8.94,15.35-21.76,20.59-34.15,1.19-2.82,2.43-5.74,3.69-8.54,12.25-27.24,30.75-43.34,56.57-49.22,24.9-5.67,53.99-1.13,79.16,4.06l-1.01,4.9c-62.79-12.95-106.46-10.39-130.16,42.32-1.24,2.75-2.46,5.64-3.64,8.44-5.46,12.9-11.1,26.24-21.85,35.92-12.3,11.08-27.51,14.88-43.39,14.88Z"/>
        <path class="cls-1" d="m1098.36,1005.83l-1.75-4.68c99.22-37.07,114.07-142.28,127.17-235.12,1.03-7.31,2.1-14.87,3.18-22.18,14.85-100.61,37.44-203.58,134.15-260.3l2.53,4.31c-94.8,55.6-117.06,157.31-131.74,256.71-1.08,7.29-2.14,14.84-3.17,22.14-13.3,94.21-28.37,200.99-130.38,239.1Z"/>
        <path class="cls-1" d="m1099.52,1004.94l-4.08-2.9c41.07-57.8,39.21-137.12,34.24-206.93-4.02-56.52-12.23-113.63-20.18-168.86-2.57-17.9-5.24-36.41-7.72-54.62-8.8-64.67-18.2-139.95-18.23-214.96-.03-80.4,10.8-149.85,33.12-212.31l4.71,1.68c-48.44,135.58-33.79,284.25-14.65,424.91,2.48,18.2,5.14,36.7,7.71,54.59,7.96,55.31,16.18,112.51,20.21,169.21,5.03,70.67,6.87,151.03-35.15,210.18Z"/>
        <path class="cls-1" d="m1094.98,1003.49c-.14-81.71-37.03-164.64-69.57-237.8l-.91-2.05c-36.65-82.39-78.92-163.82-119.8-242.58l-17.5-33.73c-39.83-76.72-81.01-156.04-117.14-236.19l-1.48-3.29c-33.93-75.25-72.39-160.54-73.57-245.33l5-.07c1.16,83.75,39.39,168.53,73.12,243.34l1.48,3.29c36.08,80.02,77.23,159.28,117.02,235.94l17.5,33.73c40.92,78.82,83.23,160.33,119.93,242.85l.91,2.05c32.75,73.62,69.86,157.06,70.01,239.83h-5Z"/>
        <path class="cls-1" d="m1095.46,1004.96c-48.05-66-106.12-126.47-162.28-184.95-8.2-8.54-16.38-17.06-24.52-25.58-53.49-56.02-108.48-112.42-161.66-166.96-17.68-18.14-35.37-36.28-53.03-54.43l-13.81-14.19c-128.26-131.81-260.88-268.11-380.07-412.05l3.85-3.19c119.06,143.78,251.61,280.01,379.8,411.75l13.81,14.19c17.66,18.16,35.35,36.29,53.03,54.43,53.19,54.55,108.18,110.95,161.69,166.99,8.13,8.52,16.32,17.04,24.51,25.57,56.27,58.6,114.46,119.19,162.71,185.47l-4.04,2.94Z"/>
        <path class="cls-1" d="m1096.71,1005.86c-78.72-25.67-154.41-64.41-227.6-101.88-8.89-4.55-17.77-9.1-26.63-13.61-77.52-39.46-155.7-80.79-231.3-120.76-14.63-7.73-29.26-15.47-43.89-23.19-24.72-13.05-49.88-26.44-74.21-39.39-146.25-77.83-297.47-158.3-453.57-219l1.81-4.66c156.37,60.81,307.73,141.35,454.1,219.25,24.33,12.95,49.48,26.33,74.2,39.38,14.63,7.73,29.26,15.46,43.9,23.19,75.59,39.96,153.75,81.28,231.24,120.72,8.86,4.51,17.74,9.06,26.64,13.61,73.02,37.38,148.52,76.03,226.87,101.58l-1.55,4.75Z"/>
        <path class="cls-1" d="m992.21,1020.51c-46.18,0-93.08-6.12-136.72-11.82l-9.45-1.23c-78.39-10.17-157.48-24.39-233.97-38.13-14.68-2.64-29.37-5.28-44.05-7.89-96.65-17.19-183.88-32.23-272.66-42.09-83.04-9.22-171.34-15.8-254.52-1.65l-.84-4.93c83.79-14.26,172.51-7.65,255.91,1.61,88.93,9.88,176.24,24.93,272.98,42.14,14.69,2.61,29.37,5.25,44.06,7.89,76.43,13.73,155.47,27.94,233.73,38.09l9.46,1.23c77.56,10.12,165.46,21.59,240.58-2.63l1.54,4.76c-33.6,10.84-69.6,14.65-106.04,14.65Z"/>
        <path class="cls-1" d="m303.54,1271.72l-3.04-3.97c113.8-87.05,257.47-115.24,394.88-136.66,17.61-2.75,35.55-5.4,52.9-7.97,52.02-7.7,105.8-15.66,157.97-27.11,70.21-15.42,148.52-36.66,189.2-93.97l4.08,2.89c-41.71,58.76-121.08,80.34-192.2,95.96-52.33,11.49-106.21,19.47-158.31,27.18-17.34,2.57-35.27,5.22-52.86,7.96-136.77,21.32-279.74,49.36-392.61,135.69Z"/>
      </g>
    </g>
  </g>
</svg>